<svg id="Layer_1" data-name="Layer 1" xmlns="http://www.w3.org/2000/svg" viewBox="0 0 838.22 262"><defs><style>.cls-1{fill:#334155;}.cls-2{fill:#fff;}</style></defs><title>Feedesto - Logo</title><circle class="cls-1" cx="131" cy="131" r="131"/><path class="cls-2" d="M271,640.49a16.63,16.63,0,0,1-13-5.79q-5.13-5.79-7.89-15.52a124.76,124.76,0,0,1-3.95-21.7q-1.19-12-1.18-24.33,0-5.26.13-10.13c.09-3.25.22-6.53.4-9.87a13.77,13.77,0,0,1-2.77.27h-2.76a41,41,0,0,1-12.62-1.58,8.71,8.71,0,0,1-4.35-4,30.46,30.46,0,0,1-3.15-6.84,20.06,20.06,0,0,1-1.19-5.52c0-.88.18-1.32.53-1.32h.26a108.45,108.45,0,0,0,12.63,2.9,76.88,76.88,0,0,0,12.63,1h1.84q.53-6.57,1-11.71t.79-8.55q1.57-16.31,3.81-30.91T257,461.08q-9.47-1.31-19.07-2.23t-19.6-.92q-7.63,0-15.65.65a117.91,117.91,0,0,0-16.18,2.5q-16,3.42-27.09,10.52t-16.58,15.53q-5.52,8.42-5.52,16.3,0,8.16,6.71,14.08t20.38,5.92c1.41,0,2.81,0,4.21-.13s2.9-.22,4.47-.4a99.12,99.12,0,0,0,17.1-4.47,187.36,187.36,0,0,0,20.65-8.55A126.65,126.65,0,0,0,230,498.7c.52-.53,1.57-.79,3.15-.79.7,0,1.05.26,1.05.79a5.38,5.38,0,0,1-1.18,2.5,41.27,41.27,0,0,1-4.34,4.87A79.74,79.74,0,0,1,198,524.87a106.57,106.57,0,0,1-34.33,5.92c-1.75,0-3.46,0-5.12-.13s-3.29-.22-4.87-.39q-14.47-1.59-22.49-11a32.78,32.78,0,0,1-8-21.84,40.58,40.58,0,0,1,5-18.8q5-9.6,15.39-17.63t27-12.89q16.57-4.86,39.73-4.87A169.62,169.62,0,0,1,234.15,445q12.9,1.83,26.31,4.47a5.54,5.54,0,0,0,.4-1.19,4.31,4.31,0,0,1,.39-1.18,1.32,1.32,0,0,1,1.18-.92,11.92,11.92,0,0,1,1.71-.13,34.59,34.59,0,0,1,11.45,1.71q4.86,1.71,4.86,5.39Q292,455,302.94,456.48a158.32,158.32,0,0,0,20.65,1.45,79.59,79.59,0,0,0,16.58-1.58,12.46,12.46,0,0,0,6.84-3.82,8.36,8.36,0,0,0,2.36-5.39,5.92,5.92,0,0,0-3.42-5.52,1.11,1.11,0,0,1-.26-.79q0-1.32,1.05-1.32a11.1,11.1,0,0,1,8.55,3.95,13.31,13.31,0,0,1,3.55,9.2q0,5-4.6,9.74t-15.91,6.05a132.55,132.55,0,0,1-14.47.79,180.34,180.34,0,0,1-22.76-1.45q-11.44-1.44-23-3.29-2.64,12.11-6.19,32.23t-6.44,41.95a266.57,266.57,0,0,0,28-2A102.55,102.55,0,0,0,317,531.32a4.49,4.49,0,0,1,1.84-.79,1.84,1.84,0,0,1,2.1,1.58v.52a3,3,0,0,1-1.84,2.64,12.52,12.52,0,0,0-2.36,1.57,122.4,122.4,0,0,1-13.29,4.74q-8.55,2.63-18.81,5.13t-20.78,4.34q-.53,7.37-1.05,14.2c-.36,4.57-.62,9.12-.79,13.68,0,1.76-.05,3.6-.13,5.53s-.13,3.94-.13,6a176.68,176.68,0,0,0,.92,18,50.81,50.81,0,0,0,3.55,15.12q2.63,6.06,7.89,6.05a7.64,7.64,0,0,0,4.73-1.58,8.61,8.61,0,0,0,2.9-3.42c.52-1.4,1.14-2.1,1.84-2.1,1.05,0,1.58.88,1.58,2.63v.53a15.1,15.1,0,0,1-3.82,10.52Q277.56,640.48,271,640.49Z" transform="translate(-120.89 -409)"/><path class="cls-1" d="M536.72,615.7a12.66,12.66,0,0,1-9.9-4.4,29.79,29.79,0,0,1-6-11.8,94.6,94.6,0,0,1-3-16.5q-.9-9.11-.9-18.5c0-2.67,0-5.23.1-7.7s.17-5,.3-7.5a10.92,10.92,0,0,1-2.1.2h-2.1a31.22,31.22,0,0,1-9.6-1.2,6.6,6.6,0,0,1-3.3-3,23,23,0,0,1-2.4-5.2,15.33,15.33,0,0,1-.9-4.2c0-.67.13-1,.4-1h.2a83,83,0,0,0,9.6,2.2,58.67,58.67,0,0,0,9.6.8h1.4q.4-5,.8-8.9t.6-6.5q1.2-12.4,2.9-23.5t3.7-19.7q-7.2-1-14.5-1.7t-14.9-.7q-5.81,0-11.9.5a88.78,88.78,0,0,0-12.3,1.9,61.52,61.52,0,0,0-20.6,8q-8.4,5.4-12.6,11.8t-4.2,12.4a13.83,13.83,0,0,0,5.1,10.7q5.1,4.5,15.5,4.5c1.07,0,2.13,0,3.2-.1s2.2-.17,3.4-.3a75.73,75.73,0,0,0,13-3.4,142.06,142.06,0,0,0,15.7-6.5,96.47,96.47,0,0,0,14.5-8.5,3.47,3.47,0,0,1,2.4-.6c.53,0,.8.2.8.6a4.14,4.14,0,0,1-.9,1.9,30.46,30.46,0,0,1-3.3,3.7,60.68,60.68,0,0,1-23.3,14.3,81.16,81.16,0,0,1-26.1,4.5c-1.33,0-2.63,0-3.9-.1s-2.5-.17-3.7-.3q-11-1.2-17.1-8.4a24.9,24.9,0,0,1-6.1-16.6,30.88,30.88,0,0,1,3.8-14.3,41.11,41.11,0,0,1,11.7-13.4q7.9-6.1,20.5-9.8t30.2-3.7a129.7,129.7,0,0,1,18.2,1.4q9.79,1.39,20,3.4a4,4,0,0,0,.3-.9,4,4,0,0,1,.3-.9,1,1,0,0,1,.9-.7,8.79,8.79,0,0,1,1.3-.1,26.21,26.21,0,0,1,8.7,1.3c2.47.87,3.7,2.23,3.7,4.1q8.8,1.4,17.1,2.5a120.32,120.32,0,0,0,15.7,1.1,60.31,60.31,0,0,0,12.6-1.2,9.43,9.43,0,0,0,5.2-2.9,6.39,6.39,0,0,0,1.8-4.1,4.51,4.51,0,0,0-2.6-4.2.82.82,0,0,1-.2-.6c0-.67.27-1,.8-1a8.45,8.45,0,0,1,6.5,3,10.13,10.13,0,0,1,2.7,7q0,3.8-3.5,7.4t-12.1,4.6a99.46,99.46,0,0,1-11,.6,138.47,138.47,0,0,1-17.3-1.1q-8.7-1.09-17.5-2.5-2,9.19-4.7,24.5t-4.9,31.9a202.18,202.18,0,0,0,21.3-1.5,78.08,78.08,0,0,0,17.9-4.1,3.48,3.48,0,0,1,1.4-.6,1.4,1.4,0,0,1,1.6,1.2v.4a2.32,2.32,0,0,1-1.4,2,9.85,9.85,0,0,0-1.8,1.2,93.47,93.47,0,0,1-10.1,3.6q-6.49,2-14.3,3.9t-15.8,3.3c-.27,3.73-.53,7.33-.8,10.8s-.47,6.93-.6,10.4c0,1.33,0,2.73-.1,4.2s-.1,3-.1,4.6a134.74,134.74,0,0,0,.7,13.7,39.15,39.15,0,0,0,2.7,11.5c1.33,3.06,3.33,4.6,6,4.6a5.84,5.84,0,0,0,3.6-1.2,6.57,6.57,0,0,0,2.2-2.6c.4-1.07.87-1.6,1.4-1.6.8,0,1.2.67,1.2,2v.4a11.48,11.48,0,0,1-2.9,8A10.14,10.14,0,0,1,536.72,615.7Z" transform="translate(-120.89 -409)"/><path class="cls-1" d="M602.92,608.9q-9.6,0-15.5-5.9a34.88,34.88,0,0,1-8.6-14.6,57.49,57.49,0,0,1-2.7-17.1,95.62,95.62,0,0,1,2-19.3,64.5,64.5,0,0,1,6.3-17.7,38.5,38.5,0,0,1,10.9-12.9,25.42,25.42,0,0,1,15.6-4.9q6.41,0,10,3.8t3.6,11.2a32.21,32.21,0,0,1-4.9,17.7,40.88,40.88,0,0,1-12.3,12.5,47.24,47.24,0,0,1-15.4,6.6v1a65.73,65.73,0,0,0,1.7,15.3,25.45,25.45,0,0,0,5.6,11.4,13.22,13.22,0,0,0,10.3,4.3,13.47,13.47,0,0,0,12-6.5,53.17,53.17,0,0,0,6.6-16.5,4.46,4.46,0,0,1,.7-1.5c.33-.47.63-.7.9-.7,1.2,0,1.73.87,1.6,2.6a42.21,42.21,0,0,1-2.4,10.2,53.36,53.36,0,0,1-3.8,8.2,28.38,28.38,0,0,1-9.1,9.5A24.33,24.33,0,0,1,602.92,608.9Zm-10.8-45.2a24.16,24.16,0,0,0,11.2-6.3,33.6,33.6,0,0,0,7.5-11.1,33.18,33.18,0,0,0,2.7-13v-1a20.85,20.85,0,0,0-1.1-6.8q-1.09-3.19-4.1-3.2-3.6,0-6.3,3.5a31.8,31.8,0,0,0-4.6,8.9,85.84,85.84,0,0,0-3.1,11.2,107.1,107.1,0,0,0-1.7,10.6q-.5,4.8-.5,7Z" transform="translate(-120.89 -409)"/><path class="cls-1" d="M655.52,608.9q-9.6,0-15.5-5.9a34.77,34.77,0,0,1-8.6-14.6,57.49,57.49,0,0,1-2.7-17.1,94.91,94.91,0,0,1,2-19.3,64.5,64.5,0,0,1,6.3-17.7,38.39,38.39,0,0,1,10.9-12.9,25.42,25.42,0,0,1,15.6-4.9q6.4,0,10,3.8t3.6,11.2a32.21,32.21,0,0,1-4.9,17.7,40.88,40.88,0,0,1-12.3,12.5,47.24,47.24,0,0,1-15.4,6.6v1a65.2,65.2,0,0,0,1.7,15.3,25.45,25.45,0,0,0,5.6,11.4,13.22,13.22,0,0,0,10.3,4.3,13.47,13.47,0,0,0,12-6.5,53.17,53.17,0,0,0,6.6-16.5,4.27,4.27,0,0,1,.7-1.5c.33-.47.63-.7.9-.7,1.2,0,1.73.87,1.6,2.6a42.21,42.21,0,0,1-2.4,10.2,53.36,53.36,0,0,1-3.8,8.2,28.38,28.38,0,0,1-9.1,9.5A24.36,24.36,0,0,1,655.52,608.9Zm-10.8-45.2a24.16,24.16,0,0,0,11.2-6.3,33.6,33.6,0,0,0,7.5-11.1,33.18,33.18,0,0,0,2.7-13v-1a20.85,20.85,0,0,0-1.1-6.8q-1.1-3.19-4.1-3.2-3.6,0-6.3,3.5a31.8,31.8,0,0,0-4.6,8.9,85.84,85.84,0,0,0-3.1,11.2,107.1,107.1,0,0,0-1.7,10.6c-.34,3.2-.5,5.53-.5,7Z" transform="translate(-120.89 -409)"/><path class="cls-1" d="M737.32,606.1a12,12,0,0,1-10.9-6q-3.7-6-5-15.4a142.53,142.53,0,0,1-1.3-19.6,148.08,148.08,0,0,1-6.6,19,68.36,68.36,0,0,1-8.9,15.6q-4.9,6.19-10.3,6.2-4.8,0-7.8-4.5a32.16,32.16,0,0,1-4.4-11.9,85.55,85.55,0,0,1-1.4-16,110.63,110.63,0,0,1,1-14,106.68,106.68,0,0,1,3.2-15.6,58.21,58.21,0,0,1,6.1-14.3,33.45,33.45,0,0,1,9.7-10.5,23.65,23.65,0,0,1,13.8-4,12.51,12.51,0,0,1,7.4,2q.39-10.61,1-20.4t1.4-15.4c.4-2.53,1-5.4,1.7-8.6a46.28,46.28,0,0,1,3.2-9.3,25,25,0,0,1,5.2-7.5,10.37,10.37,0,0,1,7.5-3q5.6,0,8.4,2.7a14.54,14.54,0,0,1,3.9,6.8,33.55,33.55,0,0,1,1.1,8.7c0,1.73-.07,3.5-.2,5.3s-.34,3.43-.6,4.9a141.3,141.3,0,0,1-4.6,21.6,232.08,232.08,0,0,1-7.9,22.9q-4.5,11.1-8.7,19.1-.21,1.4-.4,6.2c-.14,3.2-.2,6.93-.2,11.2q0,6,.3,12.5a90.18,90.18,0,0,0,1.3,12,34.71,34.71,0,0,0,2.7,9q1.69,3.5,4.5,3.5a6.39,6.39,0,0,0,5-2.7,30.35,30.35,0,0,0,4-6.7,62.69,62.69,0,0,0,2.9-7.7q1.1-3.71,1.7-5.5c.26-1.07.8-1.6,1.6-1.6s1,.73,1,2.2v1a36.27,36.27,0,0,1-9.5,23.1A14.56,14.56,0,0,1,737.32,606.1Zm-36-16.6c2.26,0,4.4-1.63,6.4-4.9a64.49,64.49,0,0,0,5.5-11.9q2.49-7,4.1-13.2a104.63,104.63,0,0,0,3.1-16.1q.9-8.1,1.1-16.3l.2-5.6a6.21,6.21,0,0,0-2.8-.6q-4.41,0-9,4.3a33.64,33.64,0,0,0-7.4,10.1,67.34,67.34,0,0,0-5.3,17.8,116.34,116.34,0,0,0-1.7,19.2v3a20.23,20.23,0,0,0,.2,3q.39,6,2,8.6T701.32,589.5Zm31.6-53.4a174.91,174.91,0,0,0,7.2-18.5,204,204,0,0,0,5.7-21.1,97.48,97.48,0,0,0,2.3-20.2v-3a20.28,20.28,0,0,0-.2-2.8,13.83,13.83,0,0,0-1.2-4.9c-.67-1.4-1.54-2.1-2.6-2.1-.54,0-1.2.43-2,1.3a14.25,14.25,0,0,0-2.4,4.7,60,60,0,0,0-1.5,8.1q-.9,6.3-1.8,14.8t-1.7,17.2q-.81,8.7-1.3,15.6c-.34,4.6-.5,7.83-.5,9.7Z" transform="translate(-120.89 -409)"/><path class="cls-1" d="M782.12,608.9q-9.61,0-15.5-5.9a34.77,34.77,0,0,1-8.6-14.6,57.17,57.17,0,0,1-2.7-17.1,94.91,94.91,0,0,1,2-19.3,64.5,64.5,0,0,1,6.3-17.7,38.39,38.39,0,0,1,10.9-12.9,25.42,25.42,0,0,1,15.6-4.9q6.39,0,10,3.8t3.59,11.2a32.29,32.29,0,0,1-4.89,17.7,40.88,40.88,0,0,1-12.3,12.5,47.33,47.33,0,0,1-15.4,6.6v1a65.2,65.2,0,0,0,1.7,15.3,25.45,25.45,0,0,0,5.6,11.4,13.22,13.22,0,0,0,10.29,4.3,13.45,13.45,0,0,0,12-6.5,53.17,53.17,0,0,0,6.61-16.5,4.27,4.27,0,0,1,.7-1.5c.33-.47.63-.7.9-.7,1.2,0,1.73.87,1.6,2.6a42.21,42.21,0,0,1-2.4,10.2,53.36,53.36,0,0,1-3.8,8.2,28.41,28.41,0,0,1-9.11,9.5A24.3,24.3,0,0,1,782.12,608.9Zm-10.8-45.2a24.21,24.21,0,0,0,11.2-6.3,33.91,33.91,0,0,0,7.5-11.1,33.17,33.17,0,0,0,2.69-13v-1a20.84,20.84,0,0,0-1.09-6.8c-.74-2.13-2.1-3.2-4.1-3.2q-3.6,0-6.31,3.5a31.8,31.8,0,0,0-4.59,8.9,85.84,85.84,0,0,0-3.1,11.2,104.23,104.23,0,0,0-1.7,10.6c-.34,3.2-.5,5.53-.5,7Z" transform="translate(-120.89 -409)"/><path class="cls-1" d="M827.31,607.3q-9,0-15.1-4.3t-6.1-15.3c0-.27,0-.9.1-1.9s.17-2,.3-3.1a12.62,12.62,0,0,1-1.2-6,10.32,10.32,0,0,1,.8-4.2,2.57,2.57,0,0,1,2.4-1.8h.2c.4,0,.93.47,1.6,1.4q2.6-7.4,4.8-15.3t4-14.1q2-7.2,5.1-15.5a25.07,25.07,0,0,1,9.9-12.7,20.07,20.07,0,0,1,11.2-3.4,5.89,5.89,0,0,1,1,.1,5.89,5.89,0,0,0,1,.1c1.07.13,1.6.6,1.6,1.4a1.24,1.24,0,0,1-1.4,1.4c-1.47.13-2.53,1.3-3.2,3.5a25.75,25.75,0,0,0-1,7.5v2.2a11.53,11.53,0,0,0,.2,2.2,68.18,68.18,0,0,0,3.6,14.5q2.8,7.9,5.3,15.8a48.85,48.85,0,0,1,2.5,14.7v1c0,1.73-.1,3.6-.3,5.6a24.27,24.27,0,0,1-1.3,5.8,49.48,49.48,0,0,0,5.5-.7,30.83,30.83,0,0,0,4.9-1.3,15.14,15.14,0,0,0,4.5-2.8,17,17,0,0,0,2.9-3.6,1.18,1.18,0,0,1,1-.6c1.07,0,1.6.67,1.6,2a3.17,3.17,0,0,1-.4,1.4q-2.2,4.4-8,7.2a35.21,35.21,0,0,1-13.6,3.2,28.21,28.21,0,0,1-8.7,11Q837.12,607.3,827.31,607.3Zm-5.4-6.6h.8a18.32,18.32,0,0,0,7.2-2.5,11.94,11.94,0,0,0,5.2-6.5.4.4,0,0,1,.1-.3.4.4,0,0,0,.1-.3,120,120,0,0,1-13.9-1.9,42.88,42.88,0,0,1-10.5-3.3,6.94,6.94,0,0,1-.1,1.2,5.89,5.89,0,0,0-.1,1q0,6,3.1,9.3A10.61,10.61,0,0,0,821.91,600.7Zm15-16a46.1,46.1,0,0,0,.6-4.6c.13-1.6.2-3.2.2-4.8a74.54,74.54,0,0,0-.4-7.7q-.4-3.9-1-7.7-1.39-9.4-3.3-17.2a59.65,59.65,0,0,1-1.9-14,25.84,25.84,0,0,1,.6-5.8c-.67,0-1.4,1-2.2,3s-1.6,4.27-2.4,6.8-1.47,4.8-2,6.8q-2.4,8.6-5.2,17.7t-6,17.9a50.87,50.87,0,0,0,5.1,2.8q2.9,1.4,5.7,2.6,2.6,1.2,5.7,2.3A61.65,61.65,0,0,0,836.91,584.7Z" transform="translate(-120.89 -409)"/><path class="cls-1" d="M889.31,606.1a13,13,0,0,1-9.7-3.8,25.24,25.24,0,0,1-5.7-9.6,56.44,56.44,0,0,1-2.7-12,98.43,98.43,0,0,1-.7-11v-3c.13-1.6.27-4.6.4-9s.33-9.57.6-15.5.67-12,1.2-18.1h-6.2c-1.07,0-1.6-.67-1.6-2a3.89,3.89,0,0,1,.7-2.1,2,2,0,0,1,1.7-1.1h5.8q.79-9.4,1.8-17t2.4-10.8a9.45,9.45,0,0,1,3.6-3.9,12.68,12.68,0,0,1,7-1.7,21.22,21.22,0,0,1,2.7.2,19.35,19.35,0,0,1,2.9.6,104.51,104.51,0,0,0-2.3,12.3q-1.31,8.89-2.3,20.3h16c1.2,0,1.8.73,1.8,2.2a3.86,3.86,0,0,1-.6,2,2,2,0,0,1-1.8,1h-16q-1,11-1.6,22.7t-.8,21.5v4.6q0,5.21.4,11.4a38.45,38.45,0,0,0,2,10.6q1.61,4.4,4.8,4.4h.2a5.64,5.64,0,0,0,3.5-1.6,19.51,19.51,0,0,0,4.1-6,37.47,37.47,0,0,0,2.9-6.7q1.31-3.9,2.7-8.3c.53-1.2,1.07-1.8,1.6-1.8s1,.8,1,2.4v.8a45.37,45.37,0,0,1-2.8,11.8,34.53,34.53,0,0,1-6.7,11.4A13.37,13.37,0,0,1,889.31,606.1Z" transform="translate(-120.89 -409)"/><path class="cls-1" d="M929.11,607.1q-6.81,0-11.1-3.6a23,23,0,0,1-6.6-9.4,52.63,52.63,0,0,1-3.2-12.7,104.33,104.33,0,0,1-.9-13.5q0-5,.4-9.3t.6-7.5a66.25,66.25,0,0,1,4.4-16.9,36.1,36.1,0,0,1,10-14.2q6.6-5.7,17.4-5.7,7.39,0,11.5,4.8a28.4,28.4,0,0,1,5.8,12.5,74.68,74.68,0,0,1,1.7,16.1A118.65,118.65,0,0,1,958,564a94.1,94.1,0,0,1-2.5,12.7,66.62,66.62,0,0,1-5.2,13.3,43.53,43.53,0,0,1-8.9,12.1A17.41,17.41,0,0,1,929.11,607.1Zm6.6-11c2.8,0,5.16-1.33,7.1-4a40.51,40.51,0,0,0,4.9-9.2,65.75,65.75,0,0,0,2.8-8.8,60.49,60.49,0,0,0,1.3-8,99.54,99.54,0,0,0,.5-10.2,72.24,72.24,0,0,0-1.8-16.1q-1.8-7.9-6.6-11.1a4.26,4.26,0,0,1-1.2-6.8,13.7,13.7,0,0,1,2-2,6.74,6.74,0,0,0-3.8-1.4c-2.4,0-4.54,1.33-6.4,4a37.66,37.66,0,0,0-4.7,9.6,95.52,95.52,0,0,0-3,10.7q-1.11,5.1-1.3,7.1-.21,2.21-.6,6.7t-.4,9.9a103.54,103.54,0,0,0,.9,13.6,34.44,34.44,0,0,0,3.3,11.4Q931.11,596.11,935.71,596.1Z" transform="translate(-120.89 -409)"/></svg>